<?xml version="1.0" encoding="UTF-8" standalone="no" ?>
<!DOCTYPE svg PUBLIC "-//W3C//DTD SVG 1.1//EN" "http://www.w3.org/Graphics/SVG/1.1/DTD/svg11.dtd">
<svg xmlns="http://www.w3.org/2000/svg" xmlns:xlink="http://www.w3.org/1999/xlink" version="1.1" width="20" height="20" viewBox="0 0 20 20" xml:space="preserve">
<desc>Created with Fabric.js 4.6.0</desc>
<defs>
</defs>
<g transform="matrix(1 0 0 1 250 250)" id="xVehs2tdhQVSOteU_qTxT"  >
<path style="stroke: none; stroke-width: 1; stroke-dasharray: none; stroke-linecap: butt; stroke-dashoffset: 0; stroke-linejoin: miter; stroke-miterlimit: 4; fill: none; fill-rule: evenodd; opacity: 1;" vector-effect="non-scaling-stroke"  transform=" translate(-12, -12)" d="M 0 0 L 24 0 L 24 24 L 0 24 z" stroke-linecap="round" />
</g>
<g transform="matrix(1 0 0 1 250 250)" id="vS9d1tcV7wR6yIlJgIEy_"  >
<path style="stroke: none; stroke-width: 1; stroke-dasharray: none; stroke-linecap: butt; stroke-dashoffset: 0; stroke-linejoin: miter; stroke-miterlimit: 4; fill: rgb(34,34,34); fill-rule: evenodd; opacity: 1;" vector-effect="non-scaling-stroke"  transform=" translate(-12, -12)" d="M 4.87 2.833 C 3.7449959645946738 2.833 2.833 3.7449959645946738 2.833 4.87 L 2.833 19.13 C 2.833 20.255 3.745 21.166999999999998 4.87 21.166999999999998 L 19.13 21.166999999999998 C 20.255004035405324 21.166999999999998 21.166999999999998 20.255004035405324 21.166999999999998 19.13 L 21.166999999999998 4.87 C 21.166999999999998 3.7449959645946738 20.255004035405324 2.833 19.13 2.833 L 4.87 2.833 z M 5 2 L 19 2 C 20.65685424949238 2 22 3.3431457505076185 22 4.999999999999999 L 22 19 C 22 20.65685424949238 20.65685424949238 22 19 22 L 5 22 C 3.3431457505076194 22 2 20.65685424949238 2 19 L 2 5 C 2 3.3431457505076194 3.3431457505076194 2 5 2 z" stroke-linecap="round" />
</g>
<g transform="matrix(1 0 0 1 12 12)" id="etGG_IFkQujkMiTIcuAhP"  >
<path style="stroke: none; stroke-width: 1; stroke-dasharray: none; stroke-linecap: butt; stroke-dashoffset: 0; stroke-linejoin: miter; stroke-miterlimit: 4; fill: none; fill-rule: evenodd; opacity: 1;" vector-effect="non-scaling-stroke"  transform=" translate(-12, -12)" d="M 0 0 L 24 0 L 24 24 L 0 24 z" stroke-linecap="round" />
</g>
<g transform="matrix(1 0 0 1 10 10)" id="yhU0Vc9cZZxwJYQWeCx3-"  >
<path style="stroke: none; stroke-width: 1; stroke-dasharray: none; stroke-linecap: butt; stroke-dashoffset: 0; stroke-linejoin: miter; stroke-miterlimit: 4; fill: rgb(34,34,34); fill-rule: evenodd; opacity: 1;" vector-effect="non-scaling-stroke"  transform=" translate(-12, -12)" d="M 4.87 2.833 C 3.7449959645946738 2.833 2.833 3.7449959645946738 2.833 4.87 L 2.833 19.13 C 2.833 20.255 3.745 21.166999999999998 4.87 21.166999999999998 L 19.13 21.166999999999998 C 20.255004035405324 21.166999999999998 21.166999999999998 20.255004035405324 21.166999999999998 19.13 L 21.166999999999998 4.87 C 21.166999999999998 3.7449959645946738 20.255004035405324 2.833 19.13 2.833 L 4.87 2.833 z M 5 2 L 19 2 C 20.65685424949238 2 22 3.3431457505076185 22 4.999999999999999 L 22 19 C 22 20.65685424949238 20.65685424949238 22 19 22 L 5 22 C 3.3431457505076194 22 2 20.65685424949238 2 19 L 2 5 C 2 3.3431457505076194 3.3431457505076194 2 5 2 z" stroke-linecap="round" />
</g>
</svg>