<?xml version="1.0" encoding="UTF-8" standalone="no" ?>
<!DOCTYPE svg PUBLIC "-//W3C//DTD SVG 1.1//EN" "http://www.w3.org/Graphics/SVG/1.1/DTD/svg11.dtd">
<svg xmlns="http://www.w3.org/2000/svg" xmlns:xlink="http://www.w3.org/1999/xlink" version="1.1" width="24" height="24" viewBox="0 0 24 24" xml:space="preserve">
<desc>Created with Fabric.js 4.6.0</desc>
<defs>
</defs>
<g transform="matrix(0.15 0 0 0.16 12.01 13.97)" id="rdSnKfQ3ifaePGJcBL0mO"  >
<path style="stroke: rgb(125,138,26); stroke-width: 0; stroke-dasharray: none; stroke-linecap: butt; stroke-dashoffset: 0; stroke-linejoin: miter; stroke-miterlimit: 4; fill: rgb(244,39,157); fill-rule: nonzero; opacity: 1;" vector-effect="non-scaling-stroke"  transform=" translate(0, 0)" d="M -50 -50 L 50 -50 L 50 50 L -50 50 z" stroke-linecap="round" />
</g>
<g transform="matrix(1.02 0 0 1.46 7.48 16.56)" id="8XC7cRSCtI84WRC7jvfGc"  >
<path style="stroke: rgb(228,55,114); stroke-width: 0; stroke-dasharray: none; stroke-linecap: butt; stroke-dashoffset: 0; stroke-linejoin: miter; stroke-miterlimit: 4; fill: rgb(244,39,157); fill-rule: nonzero; opacity: 1;" vector-effect="non-scaling-stroke"  transform=" translate(0, 0)" d="M -3.5 -3.5 L 3.5 -3.5 L 3.5 3.5 L -3.5 3.5 z" stroke-linecap="round" />
</g>
<g transform="matrix(1 0 0 1.46 67.53 76.56)" id="fkj47j_aaMLTjzKBxCFXU"  >
<path style="stroke: rgb(228,55,114); stroke-width: 0; stroke-dasharray: none; stroke-linecap: butt; stroke-dashoffset: 0; stroke-linejoin: miter; stroke-miterlimit: 4; fill: rgb(255,255,255); fill-rule: nonzero; opacity: 1;" vector-effect="non-scaling-stroke"  transform=" translate(0, 0)" d="M -3.5 -3.5 L 3.5 -3.5 L 3.5 3.5 L -3.5 3.5 z" stroke-linecap="round" />
</g>
<g transform="matrix(0.09 0 0 0.09 15.54 17.07)" id="lS2u1Bb41r5ufE1Xc52cs"  >
<path style="stroke: rgb(99,241,142); stroke-width: 0; stroke-dasharray: none; stroke-linecap: butt; stroke-dashoffset: 0; stroke-linejoin: miter; stroke-miterlimit: 4; fill: rgb(244,39,157); fill-rule: nonzero; opacity: 1;" vector-effect="non-scaling-stroke"  transform=" translate(0, 0)" d="M -50 -50 L 50 -50 L 50 50 L -50 50 z" stroke-linecap="round" />
</g>
<g transform="matrix(1 0 0 1 12 12)" id="E-zzqEiv9rizLJ5HgDG0i"  >
<path style="stroke: none; stroke-width: 1; stroke-dasharray: none; stroke-linecap: butt; stroke-dashoffset: 0; stroke-linejoin: miter; stroke-miterlimit: 4; fill: none; fill-rule: evenodd; opacity: 1;" vector-effect="non-scaling-stroke"  transform=" translate(-12, -12)" d="M 0 0 L 24 0 L 24 24 L 0 24 z" stroke-linecap="round" />
</g>
<g transform="matrix(1 0 0 1 12 12)" id="qs68cq_M8rRZ4xV9Gqq6S"  >
<path style="stroke: none; stroke-width: 1; stroke-dasharray: none; stroke-linecap: butt; stroke-dashoffset: 0; stroke-linejoin: miter; stroke-miterlimit: 4; fill: rgb(34,34,34); fill-rule: evenodd; opacity: 1;" vector-effect="non-scaling-stroke"  transform=" translate(0, 0)" d="M 4.49847 -6 L 4.49847 -4 L 3.49847 -4 L 3.49847 -6 L -3.49953 -6 L -3.49953 -4 L -4.49953 -4 L -4.49953 -6 L -6.99953 -6 L -6.99953 -2.322 C -6.99953 -1.088 -7.12953 0.3599999999999999 -7.40653 2.6129999999999995 L -7.50653 3.409 C -7.856529999999999 6.196999999999999 -7.94653 7.004 -7.98653 7.984999999999999 C -8.00653 8.466 -7.99653 8.838999999999999 -7.96253 9.088 C -7.19805 9.24953 -6.42945 9.39092 -5.6575299999999995 9.511999999999999 C -3.7175299999999996 9.816999999999998 -1.7845299999999993 9.999999999999998 0.0004700000000008586 9.999999999999998 C 0.16647000000000087 9.999999999999998 0.3354700000000009 9.997999999999998 0.5074700000000009 9.993999999999998 C 1.9764700000000008 9.959999999999997 3.5334700000000008 9.790999999999999 5.26947 9.512999999999998 C 5.45247 9.482999999999999 7.10047 9.188999999999998 7.96447 9.059999999999999 C 8.00042 8.701489999999998 8.00811 8.340709999999998 7.98747 7.980999999999999 C 7.94747 6.997999999999999 7.85747 6.184999999999999 7.50647 3.400999999999999 C 7.46647 3.0879999999999987 7.43647 2.8469999999999986 7.40847 2.6129999999999987 C 7.130470000000001 0.35799999999999876 7.00047 -1.0890000000000013 7.00047 -2.322000000000001 L 7.00047 -6.000000000000001 z M -4.49953 -6.995 L -4.49953 -7.587 C -4.49953 -9.763 -2.6315299999999997 -11 0.00246999999999975 -11 C 2.6484699999999997 -11 4.49847 -9.747 4.49847 -7.537 L 4.49847 -6.995 L 8.00047 -6.995 L 8.00047 -2.322 C 8.00047 2 9.89347 10 8.46047 10 C 7.822470000000001 10 3.830470000000001 11 0.00046999999999997044 11 C -4.21153 11 -8.46653 10 -8.46653 10 C -9.888530000000001 10 -7.999530000000001 2 -7.999530000000001 -2.321999999999999 L -7.999530000000001 -6.994999999999999 z M -3.49953 -6.995 L 3.49847 -6.995 L 3.49847 -7.537 C 3.49847 -9.093 2.1594700000000002 -10 0.003470000000000084 -10 C -2.1435299999999997 -10 -3.4985299999999997 -9.103 -3.4985299999999997 -7.587 L -3.4985299999999997 -6.995 z" stroke-linecap="round" />
</g>
<g transform="matrix(0.14 0 0 0.16 -15.27 13.84)" id="h36UHkTUCTgrtWTuP1RoR"  >
<path style="stroke: rgb(125,138,26); stroke-width: 0; stroke-dasharray: none; stroke-linecap: butt; stroke-dashoffset: 0; stroke-linejoin: miter; stroke-miterlimit: 4; fill: rgb(255,255,255); fill-rule: nonzero; opacity: 1;" vector-effect="non-scaling-stroke"  transform=" translate(0, 0)" d="M -50 -50 L 50 -50 L 50 50 L -50 50 z" stroke-linecap="round" />
</g>
<g transform="matrix(1 0 0 1.46 -19.78 16.56)" id="vK55m7vnXtWqE-da-TR_T"  >
<path style="stroke: rgb(228,55,114); stroke-width: 0; stroke-dasharray: none; stroke-linecap: butt; stroke-dashoffset: 0; stroke-linejoin: miter; stroke-miterlimit: 4; fill: rgb(255,255,255); fill-rule: nonzero; opacity: 1;" vector-effect="non-scaling-stroke"  transform=" translate(0, 0)" d="M -3.5 -3.5 L 3.5 -3.5 L 3.5 3.5 L -3.5 3.5 z" stroke-linecap="round" />
</g>
<g transform="matrix(0.09 0 0 0.09 -11.77 17.07)" id="Uwm8GBs23NyIeoIqzyFC3"  >
<path style="stroke: rgb(99,241,142); stroke-width: 0; stroke-dasharray: none; stroke-linecap: butt; stroke-dashoffset: 0; stroke-linejoin: miter; stroke-miterlimit: 4; fill: rgb(255,255,255); fill-rule: nonzero; opacity: 1;" vector-effect="non-scaling-stroke"  transform=" translate(0, 0)" d="M -50 -50 L 50 -50 L 50 50 L -50 50 z" stroke-linecap="round" />
</g>
<g transform="matrix(1 0 0 1 -15.31 12)" id="SPRfybQmLFfWh_x9GETCQ"  >
<path style="stroke: none; stroke-width: 1; stroke-dasharray: none; stroke-linecap: butt; stroke-dashoffset: 0; stroke-linejoin: miter; stroke-miterlimit: 4; fill: none; fill-rule: evenodd; opacity: 1;" vector-effect="non-scaling-stroke"  transform=" translate(-12, -12)" d="M 0 0 L 24 0 L 24 24 L 0 24 z" stroke-linecap="round" />
</g>
<g transform="matrix(1 0 0 1 -15.31 12)" id="RVgHr6YRvEtRJ84b3icSB"  >
<path style="stroke: none; stroke-width: 1; stroke-dasharray: none; stroke-linecap: butt; stroke-dashoffset: 0; stroke-linejoin: miter; stroke-miterlimit: 4; fill: rgb(34,34,34); fill-rule: evenodd; opacity: 1;" vector-effect="non-scaling-stroke"  transform=" translate(-12, -12)" d="M 16.495 6 L 16.495 8 L 15.495000000000001 8 L 15.495000000000001 6 L 8.497 6 L 8.497 8 L 7.497 8 L 7.497 6 L 4.997 6 L 4.997 9.678 C 4.997 10.912 4.867 12.360000000000001 4.59 14.613 L 4.49 15.408999999999999 C 4.140000000000001 18.197 4.05 19.003999999999998 4.01 19.985 C 3.9899999999999998 20.466 4 20.839 4.034 21.088 C 4.798479805664696 21.24953427490432 5.567079343663188 21.39091657603723 6.338999999999995 21.512 C 8.279 21.817 10.212 22 11.997 22 C 12.163 22 12.332 21.998 12.504 21.994 C 13.972999999999999 21.96 15.53 21.791 17.266 21.512999999999998 C 17.448999999999998 21.482999999999997 19.096999999999998 21.188999999999997 19.961 21.06 C 19.996949496751473 20.701492944190537 20.00463988732162 20.340713317008426 19.983999999999998 19.980999999999998 C 19.944 18.997999999999998 19.854 18.185 19.502999999999997 15.400999999999998 C 19.462999999999997 15.087999999999997 19.432999999999996 14.846999999999998 19.404999999999998 14.612999999999998 C 19.127 12.357999999999997 18.996999999999996 10.910999999999998 18.996999999999996 9.677999999999997 L 18.996999999999996 6 L 16.494999999999997 6 z M 7.497000000000002 5.005 L 7.497000000000002 4.413 C 7.497 2.237 9.365 1 11.999 1 C 14.645 1 16.495 2.253 16.495 4.463 L 16.495 5.005 L 19.997 5.005 L 19.997 9.678 C 19.997 14 21.89 22 20.457 22 C 19.819 22 15.827000000000002 23 11.997 23 C 7.785 23 3.5299999999999994 22 3.5299999999999994 22 C 2.1079999999999997 22 3.9969999999999994 14 3.9969999999999994 9.678 L 3.9969999999999994 5.005 L 7.497 5.005 z M 8.497000000000002 5.005 L 15.495000000000001 5.005 L 15.495000000000001 4.463 C 15.495 2.907 14.156 2 12 2 C 9.853 2 8.498000000000001 2.8970000000000002 8.498000000000001 4.413 L 8.498000000000001 5.005 z" stroke-linecap="round" />
</g>
<g transform="matrix(0.15 0 0 0.16 41.26 13.97)" id="f-VKYBA19D828jXBmrEE0"  >
<path style="stroke: rgb(125,138,26); stroke-width: 0; stroke-dasharray: none; stroke-linecap: butt; stroke-dashoffset: 0; stroke-linejoin: miter; stroke-miterlimit: 4; fill: rgb(0,0,0); fill-rule: nonzero; opacity: 1;" vector-effect="non-scaling-stroke"  transform=" translate(0, 0)" d="M -50 -50 L 50 -50 L 50 50 L -50 50 z" stroke-linecap="round" />
</g>
<g transform="matrix(1.02 0 0 1.46 36.73 16.56)" id="DmitQIrwMsBn6JXdw5fgV"  >
<path style="stroke: rgb(228,55,114); stroke-width: 0; stroke-dasharray: none; stroke-linecap: butt; stroke-dashoffset: 0; stroke-linejoin: miter; stroke-miterlimit: 4; fill: rgb(0,0,0); fill-rule: nonzero; opacity: 1;" vector-effect="non-scaling-stroke"  transform=" translate(0, 0)" d="M -3.5 -3.5 L 3.5 -3.5 L 3.5 3.5 L -3.5 3.5 z" stroke-linecap="round" />
</g>
<g transform="matrix(0.09 0 0 0.09 44.79 17.07)" id="pG2A4g8heTLDnhK8XSgwZ"  >
<path style="stroke: rgb(99,241,142); stroke-width: 0; stroke-dasharray: none; stroke-linecap: butt; stroke-dashoffset: 0; stroke-linejoin: miter; stroke-miterlimit: 4; fill: rgb(0,0,0); fill-rule: nonzero; opacity: 1;" vector-effect="non-scaling-stroke"  transform=" translate(0, 0)" d="M -50 -50 L 50 -50 L 50 50 L -50 50 z" stroke-linecap="round" />
</g>
<g transform="matrix(1 0 0 1 41.25 12)" id="DHhZBVukKQOHkbvoc3jfq"  >
<path style="stroke: none; stroke-width: 1; stroke-dasharray: none; stroke-linecap: butt; stroke-dashoffset: 0; stroke-linejoin: miter; stroke-miterlimit: 4; fill: none; fill-rule: evenodd; opacity: 1;" vector-effect="non-scaling-stroke"  transform=" translate(-12, -12)" d="M 0 0 L 24 0 L 24 24 L 0 24 z" stroke-linecap="round" />
</g>
<g transform="matrix(1 0 0 1 41.25 12)" id="X3DQgits2iANHg_YGe3lN"  >
<path style="stroke: none; stroke-width: 1; stroke-dasharray: none; stroke-linecap: butt; stroke-dashoffset: 0; stroke-linejoin: miter; stroke-miterlimit: 4; fill: rgb(34,34,34); fill-rule: evenodd; opacity: 1;" vector-effect="non-scaling-stroke"  transform=" translate(0, 0)" d="M 4.49847 -6 L 4.49847 -4 L 3.49847 -4 L 3.49847 -6 L -3.49953 -6 L -3.49953 -4 L -4.49953 -4 L -4.49953 -6 L -6.99953 -6 L -6.99953 -2.322 C -6.99953 -1.088 -7.12953 0.3599999999999999 -7.40653 2.6129999999999995 L -7.50653 3.409 C -7.856529999999999 6.196999999999999 -7.94653 7.004 -7.98653 7.984999999999999 C -8.00653 8.466 -7.99653 8.838999999999999 -7.96253 9.088 C -7.19805 9.24953 -6.42945 9.39092 -5.6575299999999995 9.511999999999999 C -3.7175299999999996 9.816999999999998 -1.7845299999999993 9.999999999999998 0.0004700000000008586 9.999999999999998 C 0.16647000000000087 9.999999999999998 0.3354700000000009 9.997999999999998 0.5074700000000009 9.993999999999998 C 1.9764700000000008 9.959999999999997 3.5334700000000008 9.790999999999999 5.26947 9.512999999999998 C 5.45247 9.482999999999999 7.10047 9.188999999999998 7.96447 9.059999999999999 C 8.00042 8.701489999999998 8.00811 8.340709999999998 7.98747 7.980999999999999 C 7.94747 6.997999999999999 7.85747 6.184999999999999 7.50647 3.400999999999999 C 7.46647 3.0879999999999987 7.43647 2.8469999999999986 7.40847 2.6129999999999987 C 7.130470000000001 0.35799999999999876 7.00047 -1.0890000000000013 7.00047 -2.322000000000001 L 7.00047 -6.000000000000001 z M -4.49953 -6.995 L -4.49953 -7.587 C -4.49953 -9.763 -2.6315299999999997 -11 0.00246999999999975 -11 C 2.6484699999999997 -11 4.49847 -9.747 4.49847 -7.537 L 4.49847 -6.995 L 8.00047 -6.995 L 8.00047 -2.322 C 8.00047 2 9.89347 10 8.46047 10 C 7.822470000000001 10 3.830470000000001 11 0.00046999999999997044 11 C -4.21153 11 -8.46653 10 -8.46653 10 C -9.888530000000001 10 -7.999530000000001 2 -7.999530000000001 -2.321999999999999 L -7.999530000000001 -6.994999999999999 z M -3.49953 -6.995 L 3.49847 -6.995 L 3.49847 -7.537 C 3.49847 -9.093 2.1594700000000002 -10 0.003470000000000084 -10 C -2.1435299999999997 -10 -3.4985299999999997 -9.103 -3.4985299999999997 -7.587 L -3.4985299999999997 -6.995 z" stroke-linecap="round" />
</g>
</svg>