<?xml version="1.0" encoding="UTF-8" standalone="no" ?>
<!DOCTYPE svg PUBLIC "-//W3C//DTD SVG 1.1//EN" "http://www.w3.org/Graphics/SVG/1.1/DTD/svg11.dtd">
<svg xmlns="http://www.w3.org/2000/svg" xmlns:xlink="http://www.w3.org/1999/xlink" version="1.1" width="24" height="24" viewBox="0 0 24 24" xml:space="preserve">
<desc>Created with Fabric.js 4.6.0</desc>
<defs>
</defs>
<g transform="matrix(1 0 0 1 -19.34 8.13)" id="chkJ974p6HWnuC71ZqA_N"  >
<path style="stroke: none; stroke-width: 1; stroke-dasharray: none; stroke-linecap: butt; stroke-dashoffset: 0; stroke-linejoin: miter; stroke-miterlimit: 4; fill: rgb(255,255,255); fill-opacity: 0; fill-rule: nonzero; opacity: 1;" vector-effect="non-scaling-stroke"  transform=" translate(-12, -12)" d="M 0 24 L 0 0 L 24 0 L 24 24 z" stroke-linecap="round" />
</g>
<g transform="matrix(0.17 0 0 0.18 -19.35 9.61)" id="TRmmrl-U5lHZ-8u4r8LSU"  >
<path style="stroke: rgb(255,0,0); stroke-width: 1; stroke-dasharray: none; stroke-linecap: butt; stroke-dashoffset: 0; stroke-linejoin: miter; stroke-miterlimit: 4; fill: rgb(255,0,0); fill-rule: nonzero; opacity: 1;" vector-effect="non-scaling-stroke"  transform=" translate(-652.02, -234.05)" d="M 699.8 231 C 694 245.1 652.6999999999999 275.5 652 276 L 652 276 C 651.3 275.5 610 245.1 604.2 231 C 598.4000000000001 216.9 604.7 200.3 618.4000000000001 194.3 C 630.8000000000001 188.9 645.4000000000001 193.70000000000002 652.0000000000001 205.5 C 658.7000000000002 193.7 673.2000000000002 188.9 685.6000000000001 194.3 C 699.3 200.3 705.7 216.8 699.8 231 z" stroke-linecap="round" />
</g>
<g transform="matrix(-0.06 0.06 -0.06 -0.06 -24.22 1.56)" id="wBfkgXDSZP0-XGEp9hWG7"  >
<path style="stroke: rgb(255,0,0); stroke-width: 1; stroke-dasharray: none; stroke-linecap: butt; stroke-dashoffset: 0; stroke-linejoin: miter; stroke-miterlimit: 4; fill: rgb(255,0,0); fill-rule: nonzero; opacity: 1;" vector-effect="non-scaling-stroke"  transform=" translate(-652.02, -234.05)" d="M 699.8 231 C 694 245.1 652.6999999999999 275.5 652 276 L 652 276 C 651.3 275.5 610 245.1 604.2 231 C 598.4000000000001 216.9 604.7 200.3 618.4000000000001 194.3 C 630.8000000000001 188.9 645.4000000000001 193.70000000000002 652.0000000000001 205.5 C 658.7000000000002 193.7 673.2000000000002 188.9 685.6000000000001 194.3 C 699.3 200.3 705.7 216.8 699.8 231 z" stroke-linecap="round" />
</g>
<g transform="matrix(0.12 0.04 -0.04 0.12 -24.36 5.55)" id="eVu6Gshe7rCl8wTzBEafL"  >
<path style="stroke: rgb(255,0,0); stroke-width: 1; stroke-dasharray: none; stroke-linecap: butt; stroke-dashoffset: 0; stroke-linejoin: miter; stroke-miterlimit: 4; fill: rgb(255,0,0); fill-rule: nonzero; opacity: 1;" vector-effect="non-scaling-stroke"  transform=" translate(-652.02, -234.05)" d="M 699.8 231 C 694 245.1 652.6999999999999 275.5 652 276 L 652 276 C 651.3 275.5 610 245.1 604.2 231 C 598.4000000000001 216.9 604.7 200.3 618.4000000000001 194.3 C 630.8000000000001 188.9 645.4000000000001 193.70000000000002 652.0000000000001 205.5 C 658.7000000000002 193.7 673.2000000000002 188.9 685.6000000000001 194.3 C 699.3 200.3 705.7 216.8 699.8 231 z" stroke-linecap="round" />
</g>
<g transform="matrix(-0.05 0.05 -0.05 -0.05 -25.8 0.4)" id="hOYn04SKRlywS0-VkC5yf"  >
<path style="stroke: rgb(255,0,0); stroke-width: 1; stroke-dasharray: none; stroke-linecap: butt; stroke-dashoffset: 0; stroke-linejoin: miter; stroke-miterlimit: 4; fill: rgb(255,0,0); fill-rule: nonzero; opacity: 1;" vector-effect="non-scaling-stroke"  transform=" translate(-652.02, -234.05)" d="M 699.8 231 C 694 245.1 652.6999999999999 275.5 652 276 L 652 276 C 651.3 275.5 610 245.1 604.2 231 C 598.4000000000001 216.9 604.7 200.3 618.4000000000001 194.3 C 630.8000000000001 188.9 645.4000000000001 193.70000000000002 652.0000000000001 205.5 C 658.7000000000002 193.7 673.2000000000002 188.9 685.6000000000001 194.3 C 699.3 200.3 705.7 216.8 699.8 231 z" stroke-linecap="round" />
</g>
<g transform="matrix(0.09 -0.11 0.11 0.09 -15.83 6.23)" id="OsA_rwtteFzovp1O8xkuV"  >
<path style="stroke: rgb(255,0,0); stroke-width: 1; stroke-dasharray: none; stroke-linecap: butt; stroke-dashoffset: 0; stroke-linejoin: miter; stroke-miterlimit: 4; fill: rgb(255,0,0); fill-rule: nonzero; opacity: 1;" vector-effect="non-scaling-stroke"  transform=" translate(-652.02, -234.05)" d="M 699.8 231 C 694 245.1 652.6999999999999 275.5 652 276 L 652 276 C 651.3 275.5 610 245.1 604.2 231 C 598.4000000000001 216.9 604.7 200.3 618.4000000000001 194.3 C 630.8000000000001 188.9 645.4000000000001 193.70000000000002 652.0000000000001 205.5 C 658.7000000000002 193.7 673.2000000000002 188.9 685.6000000000001 194.3 C 699.3 200.3 705.7 216.8 699.8 231 z" stroke-linecap="round" />
</g>
<g transform="matrix(0.08 -0.09 0.09 0.08 -14.17 4.59)" id="w_z05o6EAzGy2X_CmzRlc"  >
<path style="stroke: rgb(255,0,0); stroke-width: 1; stroke-dasharray: none; stroke-linecap: butt; stroke-dashoffset: 0; stroke-linejoin: miter; stroke-miterlimit: 4; fill: rgb(255,0,0); fill-rule: nonzero; opacity: 1;" vector-effect="non-scaling-stroke"  transform=" translate(-652.02, -234.05)" d="M 699.8 231 C 694 245.1 652.6999999999999 275.5 652 276 L 652 276 C 651.3 275.5 610 245.1 604.2 231 C 598.4000000000001 216.9 604.7 200.3 618.4000000000001 194.3 C 630.8000000000001 188.9 645.4000000000001 193.70000000000002 652.0000000000001 205.5 C 658.7000000000002 193.7 673.2000000000002 188.9 685.6000000000001 194.3 C 699.3 200.3 705.7 216.8 699.8 231 z" stroke-linecap="round" />
</g>
<g transform="matrix(0.07 -0.08 0.08 0.06 -12.23 3.96)" id="Yx06UKRrFho0QiiSTCJwt"  >
<path style="stroke: rgb(255,0,0); stroke-width: 1; stroke-dasharray: none; stroke-linecap: butt; stroke-dashoffset: 0; stroke-linejoin: miter; stroke-miterlimit: 4; fill: rgb(255,0,0); fill-rule: nonzero; opacity: 1;" vector-effect="non-scaling-stroke"  transform=" translate(-652.02, -234.05)" d="M 699.8 231 C 694 245.1 652.6999999999999 275.5 652 276 L 652 276 C 651.3 275.5 610 245.1 604.2 231 C 598.4000000000001 216.9 604.7 200.3 618.4000000000001 194.3 C 630.8000000000001 188.9 645.4000000000001 193.70000000000002 652.0000000000001 205.5 C 658.7000000000002 193.7 673.2000000000002 188.9 685.6000000000001 194.3 C 699.3 200.3 705.7 216.8 699.8 231 z" stroke-linecap="round" />
</g>
<g transform="matrix(1 0 0 0.99 -19.28 7.8)" id="Xv6IW-nkHwt4z4n3nyq5w"  >
<path style="stroke: none; stroke-width: 1; stroke-dasharray: none; stroke-linecap: butt; stroke-dashoffset: 0; stroke-linejoin: miter; stroke-miterlimit: 4; fill: none; fill-rule: evenodd; opacity: 1;" vector-effect="non-scaling-stroke"  transform=" translate(-12, -12)" d="M 0 0 L 24 0 L 24 24 L 0 24 z" stroke-linecap="round" />
</g>
<g transform="matrix(1 0 0 0.99 -19.28 7.9)" id="pfEfzjCA4GIWIdTPcjPnS"  >
<path style="stroke: none; stroke-width: 1; stroke-dasharray: none; stroke-linecap: butt; stroke-dashoffset: 0; stroke-linejoin: miter; stroke-miterlimit: 4; fill: rgb(255,0,0); fill-rule: evenodd; opacity: 1;" vector-effect="non-scaling-stroke"  transform=" translate(-12, -12.1)" d="M 17.376 1 C 21.476 1 24 3.578 24 7.807 C 24 9.435 23.039 11.437000000000001 21.304 13.760000000000002 C 20.413999999999998 14.952000000000002 19.334 16.206000000000003 18.107999999999997 17.497 C 16.829433804345474 18.83636035688963 15.499435545984575 20.12566140242885 14.120999999999995 21.362000000000002 C 13.524576213609743 21.898820388879855 12.919157095053357 22.425561692469646 12.304999999999987 22.941999999999993 L 11.999999999999996 23.193 L 11.694999999999997 22.941000000000003 C 11.601999999999997 22.865000000000002 11.430999999999997 22.721000000000004 11.191999999999997 22.517000000000003 C 10.795999999999996 22.177000000000003 10.353999999999997 21.790000000000003 9.878999999999996 21.362000000000002 C 8.500564454015413 20.125661402428847 7.170566195654528 18.836360356889628 5.892000000000001 17.496999999999993 C 4.664999999999996 16.206 3.5869999999999957 14.952 2.6959999999999957 13.76 C 0.961 11.437 0 9.435 0 7.807 C 0 3.578 2.524 1 6.624 1 C 8.704 1 10.854 2.5620000000000003 12 4.58 C 13.145 2.56 15.294 1 17.376 1 z M 12 21.79 L 12.18 21.636 C 12.562999999999999 21.307 12.991999999999999 20.932 13.453 20.516 C 14.789228030879466 19.31771693532879 16.07852831446676 18.06811308996837 17.317999999999994 16.769999999999996 C 18.497999999999998 15.526 19.534999999999997 14.322 20.386 13.183 C 21.979 11.051 22.848 9.24 22.848 7.897 C 22.848 4.257 20.785 2.1500000000000004 17.282999999999998 2.1500000000000004 C 15.355999999999998 2.1500000000000004 13.233999999999998 3.918 12.440999999999999 5.993 L 12 7.145 L 11.56 5.992999999999999 C 10.765 3.919 8.642 2.15 6.716 2.15 C 3.2140000000000004 2.15 1.1509999999999998 4.257 1.1509999999999998 7.897 C 1.1509999999999998 9.24 2.021 11.051 3.613 13.183 C 4.463 14.323 5.5 15.526 6.681 16.77 C 7.920452383535201 18.068452636337483 9.20975291740259 19.318390307851367 10.546000000000017 20.517000000000028 C 11.024734066380308 20.947733958406552 11.509447800339693 21.37177513419495 12 21.788999999999998 z" stroke-linecap="round" />
</g>
<g transform="matrix(1 0 0 1 12.36 10.85)" id="yjbr9f4O8NqesfnBYS1vn"  >
<path style="stroke: none; stroke-width: 1; stroke-dasharray: none; stroke-linecap: butt; stroke-dashoffset: 0; stroke-linejoin: miter; stroke-miterlimit: 4; fill: none; fill-rule: evenodd; opacity: 1;" vector-effect="non-scaling-stroke"  transform=" translate(-12, -12)" d="M 0 0 L 24 0 L 24 24 L 0 24 z" stroke-linecap="round" />
</g>
<g transform="matrix(1 0 0 1 11.96 12.3)" id="7gSrdZtd2Yuswj7nxl79O"  >
<path style="stroke: none; stroke-width: 1; stroke-dasharray: none; stroke-linecap: butt; stroke-dashoffset: 0; stroke-linejoin: miter; stroke-miterlimit: 4; fill: rgb(255,255,255); fill-opacity: 0; fill-rule: nonzero; opacity: 1;" vector-effect="non-scaling-stroke"  transform=" translate(-12, -12)" d="M 0 24 L 0 0 L 24 0 L 24 24 z" stroke-linecap="round" />
</g>
<g transform="matrix(0.17 0 0 0.18 11.95 13.78)" id="y_jXELw12GxlbxVB9fo7Z"  >
<path style="stroke: rgb(255,255,255); stroke-width: 1; stroke-dasharray: none; stroke-linecap: butt; stroke-dashoffset: 0; stroke-linejoin: miter; stroke-miterlimit: 4; fill: rgb(255,255,255); fill-rule: nonzero; opacity: 1;" vector-effect="non-scaling-stroke"  transform=" translate(-652.02, -234.05)" d="M 699.8 231 C 694 245.1 652.6999999999999 275.5 652 276 L 652 276 C 651.3 275.5 610 245.1 604.2 231 C 598.4000000000001 216.9 604.7 200.3 618.4000000000001 194.3 C 630.8000000000001 188.9 645.4000000000001 193.70000000000002 652.0000000000001 205.5 C 658.7000000000002 193.7 673.2000000000002 188.9 685.6000000000001 194.3 C 699.3 200.3 705.7 216.8 699.8 231 z" stroke-linecap="round" />
</g>
<g transform="matrix(-0.06 0.06 -0.06 -0.06 7.08 5.73)" id="1VgiiLFvuFYu5U404BGta"  >
<path style="stroke: rgb(255,255,255); stroke-width: 1; stroke-dasharray: none; stroke-linecap: butt; stroke-dashoffset: 0; stroke-linejoin: miter; stroke-miterlimit: 4; fill: rgb(255,255,255); fill-rule: nonzero; opacity: 1;" vector-effect="non-scaling-stroke"  transform=" translate(-652.02, -234.05)" d="M 699.8 231 C 694 245.1 652.6999999999999 275.5 652 276 L 652 276 C 651.3 275.5 610 245.1 604.2 231 C 598.4000000000001 216.9 604.7 200.3 618.4000000000001 194.3 C 630.8000000000001 188.9 645.4000000000001 193.70000000000002 652.0000000000001 205.5 C 658.7000000000002 193.7 673.2000000000002 188.9 685.6000000000001 194.3 C 699.3 200.3 705.7 216.8 699.8 231 z" stroke-linecap="round" />
</g>
<g transform="matrix(0.12 0.04 -0.04 0.12 6.94 9.72)" id="9Vwv1c0GMqmGonLH4IAOt"  >
<path style="stroke: rgb(255,255,255); stroke-width: 1; stroke-dasharray: none; stroke-linecap: butt; stroke-dashoffset: 0; stroke-linejoin: miter; stroke-miterlimit: 4; fill: rgb(255,255,255); fill-rule: nonzero; opacity: 1;" vector-effect="non-scaling-stroke"  transform=" translate(-652.02, -234.05)" d="M 699.8 231 C 694 245.1 652.6999999999999 275.5 652 276 L 652 276 C 651.3 275.5 610 245.1 604.2 231 C 598.4000000000001 216.9 604.7 200.3 618.4000000000001 194.3 C 630.8000000000001 188.9 645.4000000000001 193.70000000000002 652.0000000000001 205.5 C 658.7000000000002 193.7 673.2000000000002 188.9 685.6000000000001 194.3 C 699.3 200.3 705.7 216.8 699.8 231 z" stroke-linecap="round" />
</g>
<g transform="matrix(-0.05 0.05 -0.05 -0.05 5.5 4.57)" id="D-1scEWmenT4cEBU1iCsN"  >
<path style="stroke: rgb(255,255,255); stroke-width: 1; stroke-dasharray: none; stroke-linecap: butt; stroke-dashoffset: 0; stroke-linejoin: miter; stroke-miterlimit: 4; fill: rgb(255,255,255); fill-rule: nonzero; opacity: 1;" vector-effect="non-scaling-stroke"  transform=" translate(-652.02, -234.05)" d="M 699.8 231 C 694 245.1 652.6999999999999 275.5 652 276 L 652 276 C 651.3 275.5 610 245.1 604.2 231 C 598.4000000000001 216.9 604.7 200.3 618.4000000000001 194.3 C 630.8000000000001 188.9 645.4000000000001 193.70000000000002 652.0000000000001 205.5 C 658.7000000000002 193.7 673.2000000000002 188.9 685.6000000000001 194.3 C 699.3 200.3 705.7 216.8 699.8 231 z" stroke-linecap="round" />
</g>
<g transform="matrix(0.09 -0.11 0.11 0.09 15.47 10.4)" id="-zg4zyZTHq3p5nlktQhXY"  >
<path style="stroke: rgb(255,255,255); stroke-width: 1; stroke-dasharray: none; stroke-linecap: butt; stroke-dashoffset: 0; stroke-linejoin: miter; stroke-miterlimit: 4; fill: rgb(255,255,255); fill-rule: nonzero; opacity: 1;" vector-effect="non-scaling-stroke"  transform=" translate(-652.02, -234.05)" d="M 699.8 231 C 694 245.1 652.6999999999999 275.5 652 276 L 652 276 C 651.3 275.5 610 245.1 604.2 231 C 598.4000000000001 216.9 604.7 200.3 618.4000000000001 194.3 C 630.8000000000001 188.9 645.4000000000001 193.70000000000002 652.0000000000001 205.5 C 658.7000000000002 193.7 673.2000000000002 188.9 685.6000000000001 194.3 C 699.3 200.3 705.7 216.8 699.8 231 z" stroke-linecap="round" />
</g>
<g transform="matrix(0.08 -0.09 0.09 0.08 17.13 8.76)" id="gK6skFM19VQGfNdKtO9Gv"  >
<path style="stroke: rgb(255,255,255); stroke-width: 1; stroke-dasharray: none; stroke-linecap: butt; stroke-dashoffset: 0; stroke-linejoin: miter; stroke-miterlimit: 4; fill: rgb(255,255,255); fill-rule: nonzero; opacity: 1;" vector-effect="non-scaling-stroke"  transform=" translate(-652.02, -234.05)" d="M 699.8 231 C 694 245.1 652.6999999999999 275.5 652 276 L 652 276 C 651.3 275.5 610 245.1 604.2 231 C 598.4000000000001 216.9 604.7 200.3 618.4000000000001 194.3 C 630.8000000000001 188.9 645.4000000000001 193.70000000000002 652.0000000000001 205.5 C 658.7000000000002 193.7 673.2000000000002 188.9 685.6000000000001 194.3 C 699.3 200.3 705.7 216.8 699.8 231 z" stroke-linecap="round" />
</g>
<g transform="matrix(0.07 -0.08 0.08 0.06 19.07 8.13)" id="9X61-oxQv-weITMU7RVeT"  >
<path style="stroke: rgb(255,255,255); stroke-width: 1; stroke-dasharray: none; stroke-linecap: butt; stroke-dashoffset: 0; stroke-linejoin: miter; stroke-miterlimit: 4; fill: rgb(255,255,255); fill-rule: nonzero; opacity: 1;" vector-effect="non-scaling-stroke"  transform=" translate(-652.02, -234.05)" d="M 699.8 231 C 694 245.1 652.6999999999999 275.5 652 276 L 652 276 C 651.3 275.5 610 245.1 604.2 231 C 598.4000000000001 216.9 604.7 200.3 618.4000000000001 194.3 C 630.8000000000001 188.9 645.4000000000001 193.70000000000002 652.0000000000001 205.5 C 658.7000000000002 193.7 673.2000000000002 188.9 685.6000000000001 194.3 C 699.3 200.3 705.7 216.8 699.8 231 z" stroke-linecap="round" />
</g>
<g transform="matrix(1 0 0 0.99 12.02 11.97)" id="4MlecWg4GErzrf6nTYZe2"  >
<path style="stroke: none; stroke-width: 1; stroke-dasharray: none; stroke-linecap: butt; stroke-dashoffset: 0; stroke-linejoin: miter; stroke-miterlimit: 4; fill: none; fill-rule: evenodd; opacity: 1;" vector-effect="non-scaling-stroke"  transform=" translate(-12, -12)" d="M 0 0 L 24 0 L 24 24 L 0 24 z" stroke-linecap="round" />
</g>
<g transform="matrix(1 0 0 0.99 12.02 12.07)" id="wN5TpLx41xBEGUgtLq2xU"  >
<path style="stroke: none; stroke-width: 1; stroke-dasharray: none; stroke-linecap: butt; stroke-dashoffset: 0; stroke-linejoin: miter; stroke-miterlimit: 4; fill: rgb(0,0,0); fill-rule: evenodd; opacity: 1;" vector-effect="non-scaling-stroke"  transform=" translate(-12, -12.1)" d="M 17.376 1 C 21.476 1 24 3.578 24 7.807 C 24 9.435 23.039 11.437000000000001 21.304 13.760000000000002 C 20.413999999999998 14.952000000000002 19.334 16.206000000000003 18.107999999999997 17.497 C 16.829433804345474 18.83636035688963 15.499435545984575 20.12566140242885 14.120999999999995 21.362000000000002 C 13.524576213609743 21.898820388879855 12.919157095053357 22.425561692469646 12.304999999999987 22.941999999999993 L 11.999999999999996 23.193 L 11.694999999999997 22.941000000000003 C 11.601999999999997 22.865000000000002 11.430999999999997 22.721000000000004 11.191999999999997 22.517000000000003 C 10.795999999999996 22.177000000000003 10.353999999999997 21.790000000000003 9.878999999999996 21.362000000000002 C 8.500564454015413 20.125661402428847 7.170566195654528 18.836360356889628 5.892000000000001 17.496999999999993 C 4.664999999999996 16.206 3.5869999999999957 14.952 2.6959999999999957 13.76 C 0.961 11.437 0 9.435 0 7.807 C 0 3.578 2.524 1 6.624 1 C 8.704 1 10.854 2.5620000000000003 12 4.58 C 13.145 2.56 15.294 1 17.376 1 z M 12 21.79 L 12.18 21.636 C 12.562999999999999 21.307 12.991999999999999 20.932 13.453 20.516 C 14.789228030879466 19.31771693532879 16.07852831446676 18.06811308996837 17.317999999999994 16.769999999999996 C 18.497999999999998 15.526 19.534999999999997 14.322 20.386 13.183 C 21.979 11.051 22.848 9.24 22.848 7.897 C 22.848 4.257 20.785 2.1500000000000004 17.282999999999998 2.1500000000000004 C 15.355999999999998 2.1500000000000004 13.233999999999998 3.918 12.440999999999999 5.993 L 12 7.145 L 11.56 5.992999999999999 C 10.765 3.919 8.642 2.15 6.716 2.15 C 3.2140000000000004 2.15 1.1509999999999998 4.257 1.1509999999999998 7.897 C 1.1509999999999998 9.24 2.021 11.051 3.613 13.183 C 4.463 14.323 5.5 15.526 6.681 16.77 C 7.920452383535201 18.068452636337483 9.20975291740259 19.318390307851367 10.546000000000017 20.517000000000028 C 11.024734066380308 20.947733958406552 11.509447800339693 21.37177513419495 12 21.788999999999998 z" stroke-linecap="round" />
</g>
</svg>