<?xml version="1.0" encoding="UTF-8" standalone="no" ?>
<!DOCTYPE svg PUBLIC "-//W3C//DTD SVG 1.1//EN" "http://www.w3.org/Graphics/SVG/1.1/DTD/svg11.dtd">
<svg xmlns="http://www.w3.org/2000/svg" xmlns:xlink="http://www.w3.org/1999/xlink" version="1.1" width="24" height="24" viewBox="0 0 24 24" xml:space="preserve">
<desc>Created with Fabric.js 4.6.0</desc>
<defs>
</defs>
<g transform="matrix(0.14 0 0 0.16 12.04 13.67)" id="rdSnKfQ3ifaePGJcBL0mO"  >
<path style="stroke: rgb(125,138,26); stroke-width: 0; stroke-dasharray: none; stroke-linecap: butt; stroke-dashoffset: 0; stroke-linejoin: miter; stroke-miterlimit: 4; fill: rgb(255,255,255); fill-rule: nonzero; opacity: 1;" vector-effect="non-scaling-stroke"  transform=" translate(0, 0)" d="M -50 -50 L 50 -50 L 50 50 L -50 50 z" stroke-linecap="round" />
</g>
<g transform="matrix(1 0 0 1.46 7.53 16.56)" id="8XC7cRSCtI84WRC7jvfGc"  >
<path style="stroke: rgb(228,55,114); stroke-width: 0; stroke-dasharray: none; stroke-linecap: butt; stroke-dashoffset: 0; stroke-linejoin: miter; stroke-miterlimit: 4; fill: rgb(255,255,255); fill-rule: nonzero; opacity: 1;" vector-effect="non-scaling-stroke"  transform=" translate(0, 0)" d="M -3.5 -3.5 L 3.5 -3.5 L 3.5 3.5 L -3.5 3.5 z" stroke-linecap="round" />
</g>
<g transform="matrix(1 0 0 1.46 67.53 76.56)" id="fkj47j_aaMLTjzKBxCFXU"  >
<path style="stroke: rgb(228,55,114); stroke-width: 0; stroke-dasharray: none; stroke-linecap: butt; stroke-dashoffset: 0; stroke-linejoin: miter; stroke-miterlimit: 4; fill: rgb(255,255,255); fill-rule: nonzero; opacity: 1;" vector-effect="non-scaling-stroke"  transform=" translate(0, 0)" d="M -3.5 -3.5 L 3.5 -3.5 L 3.5 3.5 L -3.5 3.5 z" stroke-linecap="round" />
</g>
<g transform="matrix(0.09 0 0 0.09 15.54 17.07)" id="lS2u1Bb41r5ufE1Xc52cs"  >
<path style="stroke: rgb(99,241,142); stroke-width: 0; stroke-dasharray: none; stroke-linecap: butt; stroke-dashoffset: 0; stroke-linejoin: miter; stroke-miterlimit: 4; fill: rgb(255,255,255); fill-rule: nonzero; opacity: 1;" vector-effect="non-scaling-stroke"  transform=" translate(0, 0)" d="M -50 -50 L 50 -50 L 50 50 L -50 50 z" stroke-linecap="round" />
</g>
<g transform="matrix(1 0 0 1 12 12)" id="E-zzqEiv9rizLJ5HgDG0i"  >
<path style="stroke: none; stroke-width: 1; stroke-dasharray: none; stroke-linecap: butt; stroke-dashoffset: 0; stroke-linejoin: miter; stroke-miterlimit: 4; fill: none; fill-rule: evenodd; opacity: 1;" vector-effect="non-scaling-stroke"  transform=" translate(-12, -12)" d="M 0 0 L 24 0 L 24 24 L 0 24 z" stroke-linecap="round" />
</g>
<g transform="matrix(1 0 0 1 12 12)" id="qs68cq_M8rRZ4xV9Gqq6S"  >
<path style="stroke: none; stroke-width: 1; stroke-dasharray: none; stroke-linecap: butt; stroke-dashoffset: 0; stroke-linejoin: miter; stroke-miterlimit: 4; fill: rgb(34,34,34); fill-rule: evenodd; opacity: 1;" vector-effect="non-scaling-stroke"  transform=" translate(-12, -12)" d="M 16.495 6 L 16.495 8 L 15.495000000000001 8 L 15.495000000000001 6 L 8.497 6 L 8.497 8 L 7.497 8 L 7.497 6 L 4.997 6 L 4.997 9.678 C 4.997 10.912 4.867 12.360000000000001 4.59 14.613 L 4.49 15.408999999999999 C 4.140000000000001 18.197 4.05 19.003999999999998 4.01 19.985 C 3.9899999999999998 20.466 4 20.839 4.034 21.088 C 4.798479805664696 21.24953427490432 5.567079343663188 21.39091657603723 6.338999999999995 21.512 C 8.279 21.817 10.212 22 11.997 22 C 12.163 22 12.332 21.998 12.504 21.994 C 13.972999999999999 21.96 15.53 21.791 17.266 21.512999999999998 C 17.448999999999998 21.482999999999997 19.096999999999998 21.188999999999997 19.961 21.06 C 19.996949496751473 20.701492944190537 20.00463988732162 20.340713317008426 19.983999999999998 19.980999999999998 C 19.944 18.997999999999998 19.854 18.185 19.502999999999997 15.400999999999998 C 19.462999999999997 15.087999999999997 19.432999999999996 14.846999999999998 19.404999999999998 14.612999999999998 C 19.127 12.357999999999997 18.996999999999996 10.910999999999998 18.996999999999996 9.677999999999997 L 18.996999999999996 6 L 16.494999999999997 6 z M 7.497000000000002 5.005 L 7.497000000000002 4.413 C 7.497 2.237 9.365 1 11.999 1 C 14.645 1 16.495 2.253 16.495 4.463 L 16.495 5.005 L 19.997 5.005 L 19.997 9.678 C 19.997 14 21.89 22 20.457 22 C 19.819 22 15.827000000000002 23 11.997 23 C 7.785 23 3.5299999999999994 22 3.5299999999999994 22 C 2.1079999999999997 22 3.9969999999999994 14 3.9969999999999994 9.678 L 3.9969999999999994 5.005 L 7.497 5.005 z M 8.497000000000002 5.005 L 15.495000000000001 5.005 L 15.495000000000001 4.463 C 15.495 2.907 14.156 2 12 2 C 9.853 2 8.498000000000001 2.8970000000000002 8.498000000000001 4.413 L 8.498000000000001 5.005 z" stroke-linecap="round" />
</g>
</svg>